<?xml version="1.0" encoding="utf-8"?>
<!-- Generator: Adobe Illustrator 25.0.0, SVG Export Plug-In . SVG Version: 6.00 Build 0)  -->
<svg version="1.1" id="Capa_1" xmlns="http://www.w3.org/2000/svg" xmlns:xlink="http://www.w3.org/1999/xlink" x="0px" y="0px"
	 viewBox="0 0 566.93 566.93" style="enable-background:new 0 0 566.93 566.93;" xml:space="preserve">
<style type="text/css">
	.st0{fill:#A3BD31;stroke:#A3BD31;stroke-width:2;stroke-miterlimit:10;}
	.st1{fill:#CE6B03;}
	.st2{fill:#CE6B03;stroke:#000000;stroke-width:4;stroke-miterlimit:10;}
	.st3{fill:#CE6B03;stroke:#FFFFFF;stroke-width:2;stroke-miterlimit:10;}
	.st4{fill:none;stroke:#000000;stroke-width:4;stroke-miterlimit:10;}
</style>
<path class="st0" d="M297.79,243c-6.73,1.35-14.72-12.37-18-18c-5.75-9.88-12.03-24.88-9-27c3.57-2.5,20.24,21.52,27,18
	c5.4-2.81,1.46-20.46,0-27c-5.91-26.49-18.71-44.55-18-45c1.06-0.68,30.06,47.75,36,45c5.78-2.67-11.91-52.98-9-54
	c2.2-0.77,11.87,28.13,18,27c8.04-1.48,5.14-53.81,9-54c1.51-0.07,2.11,7.93,9,18c3.42,4.99,6.45,9.42,9,9
	c8.36-1.37,5.73-53.84,9-54c2.34-0.12,3.91,26.72,9,27c0.78,0.04,2.79-0.46,9-18c6.1-17.24,7.84-27.16,9-27
	c1.56,0.21,1.53,18.41,0,36c-1.03,11.8-2.17,16.95,0,18c3.42,1.65,12.46-8.14,18-18c7.94-14.15,7.92-27.12,9-27
	c1.22,0.14,1.69,16.54,0,36c-0.97,11.12-2.11,17.1,0,18c4.22,1.81,16.81-18.77,18-18c1.23,0.79-13.79,21.95-9,27
	c1.02,1.08,2.86,1.32,9,0c16.4-3.52,26.18-10.11,27-9c0.71,0.95-5.35,7.33-18,18c-19.15,16.15-27.89,20.62-27,27
	c0.69,4.96,6.76,7.91,9,9c12.37,6.02,26.57-1.22,27,0c0.58,1.65-18,9-18,9c-29.99,11.86-45.38,16.07-45,18c0.23,1.18,6.24,0.7,27,0
	c23.91-0.8,26.94-0.52,27,0c0.2,1.58-26.77,6.19-63,18c-9.48,3.09-18.31,6.26-18,9c0.61,5.36,35.5,3.81,36,9
	c0.11,1.11-1.37,2.38-18,9c-15,5.97-22.59,8.95-27,9"/>
<path class="st1" d="M252.06,235.33c24.31-6.62,47.62,1.01,72,9c31.19,10.22,46.78,15.32,54,27c29.42,47.59-85.43,177.98-189,225
	c-17.29,7.85-54.52,24.28-72,9c-9.22-8.06-9.79-22.19-9-36c3.53-62,36.01-112.63,73.94-168c2.67-3.9,8.02-11.62,16.06-21
	C215.4,260.09,230.06,241.32,252.06,235.33z"/>
<path class="st2" d="M216.06,316.33"/>
<path class="st2" d="M234.06,325.33"/>
<path class="st2" d="M198.06,343.33"/>
<path class="st3" d="M297.06,316.22c8.01,3.76,24.1,9.99,45,9c16.07-0.76,28.55-5.49,36-9"/>
<path class="st3" d="M153.06,345.24c6.34,5.03,15.32,11.1,27,16.08c14.21,6.06,27.01,8.21,36,9"/>
<path class="st4" d="M306.06,235.33"/>
</svg>
